<svg xmlns="http://www.w3.org/2000/svg" version="1.0" width="266.000000pt" height="266.000000pt" viewBox="-3 -3 272 272" preserveAspectRatio="xMidYMid meet" transform="matrix(1, 0, 0, 1, 0, 0)"><g id="deeditor_bgCarrier" stroke-width="0">
  <rect id="dee_c_e" x="-3" y="-3" width="272" height="272" rx="38.4" fill="#fafcfc" strokewidth="0"/>
</g>

<g transform="translate(0.000000,266.000000) scale(0.100000,-0.100000)" fill="#03a9f4" stroke="none">
<path d="M745 2587 c-23 -17 -14 -47 15 -47 26 0 37 27 18 46 -12 12 -17 12 -33 1z m35 -23 c0 -8 -9 -14 -20 -14 -22 0 -28 26 -7 33 16 6 27 -1 27 -19z" fill="#03a9f4"/>
<path d="M815 2586 c-20 -14 -15 -46 7 -46 9 0 9 3 0 12 -18 18 -15 28 9 28 16 0 20 -5 16 -20 -3 -11 -1 -18 4 -14 13 8 11 30 -4 43 -10 8 -18 7 -32 -3z" fill="#03a9f4"/>
<path d="M1374 2585 c-5 -13 -9 -13 -23 -3 -14 11 -14 11 -5 -2 6 -8 13 -21 15 -28 2 -7 9 1 16 18 6 16 9 30 7 30 -3 0 -7 -7 -10 -15z" fill="#03a9f4"/>
<path d="M681 2568 c-1 -23 3 -28 22 -27 15 1 17 3 5 6 -9 2 -19 14 -21 26 -4 18 -5 17 -6 -5z" fill="#03a9f4"/>
<path d="M873 2573 c1 -12 5 -19 10 -16 5 3 13 0 17 -7 5 -8 8 -4 7 13 -2 18 -5 22 -14 16 -7 -7 -13 -5 -16 3 -3 7 -4 3 -4 -9z" fill="#03a9f4"/>
<path d="M960 2565 c0 -14 5 -25 11 -25 5 0 7 5 4 10 -3 6 1 10 10 10 10 0 13 -5 9 -12 -4 -7 -3 -8 5 -4 14 9 5 26 -15 26 -8 0 -12 5 -9 10 3 6 1 10 -4 10 -6 0 -11 -11 -11 -25z" fill="#03a9f4"/>
<path d="M1020 2575 c0 -9 9 -15 23 -14 17 1 18 2 4 6 -9 2 -15 9 -12 14 4 5 1 9 -4 9 -6 0 -11 -7 -11 -15z" fill="#03a9f4"/>
<path d="M1080 2564 c0 -15 3 -23 8 -18 4 5 10 11 13 14 4 3 1 11 -7 18 -12 11 -14 8 -14 -14z" fill="#03a9f4"/>
<path d="M1134 2575 c-11 -27 25 -50 40 -26 4 5 -3 7 -14 4 -14 -4 -20 0 -20 12 0 12 6 16 20 12 11 -3 20 -1 20 4 0 15 -40 10 -46 -6z" fill="#03a9f4"/>
<path d="M1201 2563 c0 -16 3 -22 6 -15 4 10 8 10 19 1 11 -9 14 -6 13 17 0 16 -3 23 -6 17 -2 -7 -9 -13 -14 -13 -6 0 -7 5 -4 10 3 6 1 10 -4 10 -6 0 -11 -12 -10 -27z" fill="#03a9f4"/>
<path d="M1260 2563 c0 -16 4 -23 8 -17 4 6 14 14 22 17 12 4 11 6 -3 6 -10 1 -15 6 -12 11 3 6 1 10 -4 10 -6 0 -11 -12 -11 -27z" fill="#03a9f4"/>
<path d="M1396 2581 c-10 -16 5 -41 25 -41 23 0 36 27 21 42 -8 8 -9 5 -5 -11 4 -14 1 -21 -9 -21 -22 0 -29 12 -17 27 8 9 8 13 1 13 -6 0 -13 -4 -16 -9z" fill="#03a9f4"/>
<path d="M1562 2565 c0 -16 2 -22 5 -12 2 9 2 23 0 30 -3 6 -5 -1 -5 -18z" fill="#03a9f4"/>
<path d="M1610 2563 c0 -16 4 -23 8 -17 4 6 14 14 22 17 12 4 11 6 -3 6 -10 1 -15 6 -12 11 3 6 1 10 -4 10 -6 0 -11 -12 -11 -27z" fill="#03a9f4"/>
<path d="M1675 2569 c-4 -11 -4 -23 -1 -26 3 -4 6 1 6 10 0 22 9 21 27 0 12 -16 12 -14 2 10 -14 32 -25 34 -34 6z" fill="#03a9f4"/>
<path d="M1730 2564 c0 -14 4 -23 9 -19 11 6 10 45 -1 45 -4 0 -8 -12 -8 -26z" fill="#03a9f4"/>
<path d="M1760 2576 c0 -9 5 -16 10 -16 6 0 10 4 10 9 0 6 -4 13 -10 16 -5 3 -10 -1 -10 -9z" fill="#03a9f4"/>
<path d="M1501 2554 c0 -11 3 -14 6 -6 3 7 2 16 -1 19 -3 4 -6 -2 -5 -13z" fill="#03a9f4"/>
<path d="M1997 2513 c-4 -3 -7 -25 -7 -49 0 -23 -5 -44 -11 -46 -6 -2 -9 -19 -7 -38 3 -31 4 -33 19 -18 11 12 17 38 18 87 2 71 0 77 -12 64z" fill="#03a9f4"/>
<path d="M2172 2460 c1 -28 0 -50 -4 -50 -5 0 -7 -42 -6 -92 l2 -93 3 85 c2 47 8 89 13 94 14 14 13 106 -1 106 -7 0 -10 -18 -7 -50z" fill="#03a9f4"/>
<path d="M1896 2483 c-3 -3 -6 -28 -6 -55 0 -26 -4 -48 -10 -48 -15 0 -13 -187 3 -197 7 -5 12 -31 12 -67 0 -38 4 -61 13 -63 9 -4 12 13 12 61 0 37 4 66 10 66 6 0 10 40 10 100 0 60 -4 100 -10 100 -5 0 -10 22 -10 49 0 47 -9 68 -24 54z" fill="#03a9f4"/>
<path d="M931 2444 c-12 -15 -24 -38 -27 -51 -11 -43 2 -132 23 -161 14 -19 22 -50 26 -101 5 -64 3 -77 -13 -99 -26 -32 -25 -66 3 -111 18 -29 22 -51 23 -120 l1 -83 -66 -43 c-77 -49 -156 -130 -177 -182 -20 -46 -24 -184 -6 -190 9 -4 12 13 12 60 0 113 42 189 143 260 84 59 87 61 87 43 0 -9 -13 -22 -28 -30 -16 -8 -52 -36 -82 -63 -69 -62 -100 -127 -100 -211 l0 -63 37 3 c34 3 40 8 60 48 25 51 31 47 9 -5 -8 -19 -14 -35 -13 -35 84 -6 252 -10 266 -5 16 5 18 11 11 35 -4 16 -6 31 -3 34 3 3 7 22 9 42 3 42 32 87 59 92 15 4 16 -4 10 -83 -4 -48 -8 -94 -9 -102 -1 -13 13 -16 72 -17 l74 -1 -7 111 c-8 118 1 148 31 105 8 -12 19 -21 25 -21 21 0 6 32 -46 98 l-55 71 58 27 c31 16 59 29 62 31 3 2 4 -92 2 -207 l-3 -211 30 -35 c17 -19 31 -39 31 -44 0 -6 5 -10 10 -10 6 0 10 9 10 20 0 10 9 44 21 75 l20 55 -20 29 c-12 16 -21 34 -21 40 0 21 17 11 43 -25 27 -39 28 -36 -12 -127 -12 -27 -21 -53 -21 -58 0 -5 58 -9 130 -9 l130 0 0 98 c0 86 -3 104 -29 158 -33 70 -76 108 -198 179 -71 40 -100 65 -77 65 18 0 201 -117 234 -150 65 -65 74 -90 78 -227 4 -106 6 -123 21 -123 14 0 16 13 13 112 -6 187 -50 253 -245 363 l-106 60 -1 81 c0 77 1 81 26 92 14 7 32 29 40 49 14 32 14 40 0 72 -8 20 -17 65 -19 101 -10 158 -119 242 -253 196 -108 -37 -187 -12 -227 71 -26 57 -47 64 -76 27z m52 -48 c38 -81 132 -113 237 -82 74 22 121 20 160 -7 49 -32 74 -81 75 -145 0 -52 -1 -55 -37 -73 -37 -19 -37 -19 -52 3 -20 28 -20 68 -1 94 8 10 15 22 15 27 0 15 -57 6 -110 -19 -114 -53 -236 -40 -299 31 -49 56 -59 120 -29 183 15 30 21 28 41 -12z m337 -255 c0 -23 8 -48 20 -64 26 -33 9 -45 -26 -18 -49 38 -132 16 -149 -39 -9 -29 -21 -25 -64 20 -32 34 -44 40 -79 40 -42 0 -42 0 -42 38 0 21 2 41 5 44 3 3 22 -3 43 -13 53 -27 151 -25 222 5 30 13 58 24 63 25 4 0 7 -16 7 -38z m166 -116 c9 -34 -19 -75 -51 -75 -25 0 -25 -1 -25 -90 l0 -90 -39 -24 c-21 -14 -55 -32 -75 -40 -34 -14 -36 -14 -47 5 -8 17 -7 23 8 35 10 7 21 14 26 14 4 0 12 12 18 26 7 21 6 31 -7 45 -10 11 -22 19 -28 19 -5 0 -50 -22 -98 -50 -48 -27 -92 -50 -98 -50 -5 0 -10 9 -10 19 0 10 -16 33 -35 50 -46 40 -46 61 1 61 50 0 104 34 104 66 0 15 6 24 15 24 8 0 15 -8 15 -18 0 -10 14 -31 30 -47 52 -50 136 -31 164 36 7 16 29 41 49 55 36 24 48 44 26 44 -8 0 -8 4 1 15 16 20 48 3 56 -30z m-419 10 c38 -26 37 -92 -1 -117 -22 -15 -73 -8 -91 12 -57 63 23 154 92 105z m238 -10 c30 -29 32 -68 5 -95 -46 -46 -120 -15 -120 51 0 34 34 69 67 69 13 0 35 -11 48 -25z m-31 -214 c7 -11 -27 -40 -96 -81 -32 -19 -58 -40 -58 -47 0 -18 5 -17 55 12 36 22 44 23 49 10 4 -10 -8 -24 -35 -42 -25 -17 -36 -30 -30 -36 6 -6 20 -2 40 12 36 26 52 11 24 -22 -18 -21 -18 -21 1 -7 17 13 18 13 15 -5 -2 -10 -30 -39 -62 -63 -31 -24 -64 -57 -72 -72 -15 -29 -16 -29 -54 -15 -21 7 -53 21 -70 29 l-31 17 17 32 c13 25 17 60 17 154 1 128 8 147 40 101 20 -29 20 -55 0 -76 -38 -38 12 -20 119 42 119 69 123 71 131 57z m34 -245 c-3 -24 -52 -51 -75 -42 -12 5 -11 10 10 26 14 11 29 30 32 41 5 16 9 18 21 8 8 -7 14 -22 12 -33z m222 -41 c0 -2 -5 -15 -12 -29 -8 -20 -14 -23 -24 -15 -10 8 -11 15 -1 30 10 17 37 27 37 14z m-240 -74 c0 -21 3 -59 6 -85 l7 -46 -42 0 -41 0 0 48 c0 26 3 64 6 85 6 33 10 37 35 37 27 0 29 -3 29 -39z m-200 -58 c0 -18 -10 -17 -82 14 -76 32 -88 41 -82 58 7 17 164 -52 164 -72z" fill="#03a9f4"/>
<path d="M995 2320 c10 -11 20 -20 23 -20 3 0 -3 9 -13 20 -10 11 -20 20 -23 20 -3 0 3 -9 13 -20z" fill="#03a9f4"/>
<path d="M1044 2286 c11 -9 24 -16 30 -16 12 0 7 5 -24 19 -24 11 -24 11 -6 -3z" fill="#03a9f4"/>
<path d="M1307 2291 c29 -4 57 -11 61 -16 15 -16 22 -71 10 -83 -7 -7 -1 -10 21 -8 25 2 31 -2 31 -18 0 -10 3 -17 6 -13 3 3 3 20 -1 38 -5 23 -10 28 -16 18 -6 -10 -8 -5 -6 15 3 42 -49 77 -112 75 l-46 -2 52 -6z" fill="#03a9f4"/>
<path d="M1113 2263 c15 -2 37 -2 50 0 12 2 0 4 -28 4 -27 0 -38 -2 -22 -4z" fill="#03a9f4"/>
<path d="M1361 2134 c0 -11 3 -14 6 -6 3 7 2 16 -1 19 -3 4 -6 -2 -5 -13z" fill="#03a9f4"/>
<path d="M2086 2449 c-4 -14 -10 -65 -23 -196 -4 -54 -3 -63 11 -63 14 0 15 -11 10 -85 -5 -63 -4 -85 5 -85 9 0 12 25 11 88 -2 113 -1 122 10 97 7 -17 9 -15 9 11 1 17 4 52 7 78 5 36 4 46 -7 46 -11 0 -13 12 -10 51 3 49 -13 90 -23 58z" fill="#03a9f4"/>
<path d="M1793 2424 c-3 -8 -3 -42 0 -75 3 -32 1 -59 -4 -59 -5 0 -9 -28 -8 -62 0 -45 3 -57 9 -43 6 13 8 -7 7 -57 -1 -46 2 -77 8 -78 6 0 11 36 12 86 1 47 5 89 9 92 3 4 5 -8 2 -25 -2 -18 -1 -33 4 -33 4 0 8 27 8 60 0 33 -4 60 -10 60 -6 0 -10 32 -10 75 0 71 -12 97 -27 59z" fill="#03a9f4"/>
<path d="M2018 2413 c-2 -5 -1 -28 3 -53 l6 -45 1 53 c2 48 -2 63 -10 45z" fill="#03a9f4"/>
<path d="M2183 2395 c-3 -9 -3 -18 -1 -21 9 -9 38 8 38 22 0 19 -29 18 -37 -1z" fill="#03a9f4"/>
<path d="M570 2234 c0 -81 4 -123 10 -119 6 4 10 57 10 126 0 73 -4 119 -10 119 -6 0 -10 -49 -10 -126z" fill="#03a9f4"/>
<path d="M1990 2261 c0 -22 5 -43 10 -46 6 -4 10 12 10 39 0 25 -4 46 -10 46 -5 0 -10 -18 -10 -39z" fill="#03a9f4"/>
<path d="M1610 2245 c0 -19 -4 -35 -10 -35 -6 0 -10 -28 -10 -65 0 -37 4 -65 10 -65 6 0 10 -18 10 -40 0 -22 5 -40 10 -40 6 0 10 18 10 39 0 25 5 41 15 45 11 4 15 21 15 61 0 40 -4 57 -15 61 -9 4 -15 19 -15 40 0 19 -4 34 -10 34 -5 0 -10 -16 -10 -35z" fill="#03a9f4"/>
<path d="M1700 2241 c0 -22 -3 -41 -7 -43 -5 -1 -5 -25 -2 -53 4 -36 6 -41 7 -17 1 17 7 32 12 32 6 0 10 6 10 14 0 8 8 17 18 19 13 4 13 5 2 6 -12 1 -15 10 -12 41 3 32 1 40 -12 40 -12 0 -16 -10 -16 -39z" fill="#03a9f4"/>
<path d="M667 2223 c-4 -3 -7 -39 -7 -80 0 -42 -4 -73 -10 -73 -13 0 -13 -242 -1 -256 6 -5 11 -62 12 -127 1 -65 5 -120 9 -122 10 -6 20 75 20 166 0 46 4 79 10 79 6 0 10 50 10 130 0 80 -4 130 -10 130 -6 0 -10 33 -10 80 0 73 -6 91 -23 73z" fill="#03a9f4"/>
<path d="M340 2210 c0 -5 -8 -10 -19 -10 -21 0 -33 -30 -20 -53 5 -8 23 -18 39 -22 17 -4 30 -13 30 -21 0 -10 -11 -13 -45 -9 -38 4 -44 2 -33 -8 22 -23 54 -25 78 -7 30 23 21 46 -26 66 -19 8 -34 20 -31 27 5 14 37 17 55 4 8 -6 12 -5 12 4 0 8 -9 20 -20 27 -12 7 -20 8 -20 2z" fill="#03a9f4"/>
<path d="M2170 2159 c0 -17 4 -28 10 -24 6 3 10 17 10 31 0 13 -4 24 -10 24 -5 0 -10 -14 -10 -31z" fill="#03a9f4"/>
<path d="M2211 2154 c-18 -23 -21 -41 -21 -115 l0 -89 -74 0 c-108 0 -106 -2 -106 96 0 80 1 85 25 96 32 14 32 28 1 28 -41 0 -56 -34 -56 -127 l0 -83 -52 1 c-49 1 -95 -4 -298 -32 -104 -14 -110 -17 -110 -45 0 -18 6 -24 23 -25 38 -1 60 -7 67 -20 5 -8 34 -10 91 -8 l83 4 98 -110 98 -110 0 -281 c0 -241 2 -283 15 -288 12 -4 15 5 15 49 l0 55 80 0 80 0 0 -54 c0 -30 3 -62 6 -71 6 -15 -2 -16 -77 -12 -46 2 -97 8 -114 12 -29 7 -29 7 -13 -11 25 -26 187 -34 210 -10 15 14 20 14 53 0 28 -11 54 -14 104 -9 82 8 141 23 141 35 0 6 -9 6 -22 1 -13 -4 -35 -11 -51 -15 l-27 -6 2 427 3 428 45 5 c42 5 45 7 48 37 3 31 3 32 -45 35 l-48 3 -5 101 c-6 125 -12 134 -90 134 -51 0 -61 -3 -79 -26z m123 -10 c12 -12 16 -37 16 -110 l0 -94 -27 0 c-16 0 -45 3 -65 6 l-38 7 0 85 c0 65 4 90 17 104 20 22 76 24 97 2z m-434 -213 c0 -14 -19 -18 -141 -31 -63 -7 -136 -16 -164 -20 -27 -5 -52 -6 -54 -4 -13 13 25 25 105 35 49 5 116 14 149 18 85 12 105 12 105 2z m338 -7 c137 -4 222 -11 222 -17 0 -11 -469 -2 -522 9 -51 11 -31 27 25 21 28 -4 152 -9 275 -13z m102 -220 c0 4 -22 34 -50 66 l-50 57 38 7 c76 12 73 15 71 -78 l-2 -85 -81 86 c-44 47 -82 91 -84 97 -2 6 33 -27 77 -74 44 -47 80 -81 81 -76z m-380 0 c0 5 -20 33 -45 62 -25 28 -45 55 -45 58 0 3 25 6 55 6 l55 0 0 -65 c0 -41 -4 -65 -11 -65 -8 0 -8 -5 1 -15 7 -8 10 -15 7 -15 -7 0 -81 79 -127 135 -17 22 0 6 39 -35 39 -41 71 -71 71 -66z m180 116 c0 -6 -29 -10 -66 -10 -41 0 -63 4 -59 10 3 6 33 10 66 10 33 0 59 -4 59 -10z m30 -90 l0 -60 -80 0 -80 0 0 54 0 55 38 4 c20 2 56 4 80 5 l42 2 0 -60z m161 -93 c17 -22 18 -48 19 -312 1 -190 -2 -291 -9 -298 -14 -14 -91 -13 -119 2 l-22 12 0 370 0 370 56 -60 c31 -34 64 -71 75 -84z m-163 -49 l-3 -53 -77 -3 -78 -3 0 56 0 55 81 0 80 0 -3 -52z m2 -113 l0 -35 -80 0 -80 0 0 35 0 35 80 0 80 0 0 -35z m0 -115 l0 -50 -80 0 -80 0 0 50 0 50 80 0 80 0 0 -50z m0 -127 l0 -53 -80 0 -80 0 0 53 0 53 80 0 80 0 0 -53z" fill="#03a9f4"/>
<path d="M773 2105 c0 -38 2 -53 4 -32 2 20 2 52 0 70 -2 17 -4 1 -4 -38z" fill="#03a9f4"/>
<path d="M860 2121 c0 -28 -4 -51 -10 -51 -6 0 -10 -35 -10 -85 0 -47 4 -85 10 -85 5 0 10 -25 12 -55 2 -30 8 -55 13 -55 6 1 9 21 7 47 -1 25 3 52 10 60 15 18 14 163 -2 173 -6 4 -10 25 -8 50 2 28 -1 45 -9 47 -9 3 -13 -10 -13 -46z" fill="#03a9f4"/>
<path d="M460 2020 c0 -67 -4 -110 -10 -110 -6 0 -10 -57 -10 -150 0 -93 4 -150 10 -150 6 0 10 -37 10 -91 0 -117 20 -117 23 0 2 57 6 86 15 89 9 3 12 43 12 153 0 130 -2 149 -16 149 -14 0 -15 13 -9 110 6 97 5 110 -9 110 -14 0 -16 -16 -16 -110z" fill="#03a9f4"/>
<path d="M1704 2045 c-7 -28 0 -55 16 -55 13 0 13 67 0 75 -5 3 -12 -6 -16 -20z" fill="#03a9f4"/>
<path d="M366 1826 c-4 -30 -4 -70 -1 -89 5 -26 3 -36 -9 -40 -14 -5 -16 -27 -16 -142 0 -83 4 -135 10 -135 6 0 10 -41 10 -102 0 -57 3 -127 6 -155 13 -101 24 -52 24 102 0 97 4 155 10 155 6 0 10 51 10 134 0 79 -4 137 -10 141 -5 3 -10 46 -10 96 0 99 -14 119 -24 35z" fill="#03a9f4"/>
<path d="M773 1750 c0 -30 2 -43 4 -27 2 15 2 39 0 55 -2 15 -4 2 -4 -28z" fill="#03a9f4"/>
<path d="M260 1718 c0 -40 -3 -111 -6 -158 -3 -56 -2 -80 4 -70 13 20 23 95 29 208 4 79 2 92 -11 92 -13 0 -16 -13 -16 -72z" fill="#03a9f4"/>
<path d="M565 1581 c-7 -79 -2 -107 16 -96 12 8 12 162 0 169 -5 3 -12 -30 -16 -73z" fill="#03a9f4"/>
<path d="M170 1556 c0 -24 -4 -46 -8 -48 -13 -5 -24 -178 -12 -178 5 0 10 -20 10 -44 0 -46 16 -69 31 -45 5 8 6 29 3 47 -4 20 -2 32 5 32 7 0 11 32 11 95 0 57 -4 95 -10 95 -5 0 -10 18 -10 39 0 22 -4 43 -10 46 -6 4 -10 -11 -10 -39z" fill="#03a9f4"/>
<path d="M293 1515 c0 -33 2 -45 4 -27 2 18 2 45 0 60 -2 15 -4 0 -4 -33z" fill="#03a9f4"/>
<path d="M267 1334 c-11 -11 -8 -222 3 -229 6 -3 10 4 11 17 0 13 2 59 3 103 4 78 -3 122 -17 109z" fill="#03a9f4"/>
<path d="M597 1262 c-34 -38 -24 -61 120 -285 l64 -97 372 2 372 3 -3 31 c-2 19 3 36 13 44 10 8 15 30 15 66 0 59 -17 84 -55 84 -21 0 -26 8 -41 60 -11 42 -26 68 -46 85 l-30 25 -382 0 c-358 0 -384 -1 -399 -18z m815 -52 c9 -19 20 -52 23 -72 7 -36 6 -38 -18 -38 -45 0 -52 -23 -27 -83 27 -64 30 -68 71 -76 18 -4 34 -12 37 -19 3 -9 -68 -12 -316 -12 -176 0 -333 -3 -350 -6 -28 -6 -32 -2 -74 62 -151 236 -161 253 -148 269 11 13 64 15 399 13 l386 -3 17 -35z m103 -150 c0 -20 -104 -27 -116 -8 -6 10 2 15 34 19 60 9 82 6 82 -11z m13 -52 c-3 -7 -16 -20 -30 -28 -22 -12 -30 -12 -55 0 l-28 13 44 8 c24 5 46 11 49 14 10 10 24 5 20 -7z" fill="#03a9f4"/>
<path d="M978 1223 c12 -2 30 -2 40 0 9 3 -1 5 -23 4 -22 0 -30 -2 -17 -4z" fill="#03a9f4"/>
<path d="M690 1185 c0 -10 142 -255 151 -261 13 -8 11 10 -3 24 -9 9 -3 12 29 12 31 0 44 -5 56 -22 l16 -23 -2 24 c-1 14 -10 33 -19 43 -28 28 -22 46 15 51 l32 4 -36 1 c-28 2 -38 8 -47 27 -7 14 -12 28 -12 30 0 3 31 5 68 5 l68 0 26 -52 c15 -29 26 -44 25 -33 -1 11 -10 31 -20 45 -9 13 -17 28 -17 33 0 4 26 7 58 5 l57 -3 17 -50 c9 -27 17 -56 17 -62 1 -16 -80 -18 -95 -3 -7 7 -11 6 -11 -5 0 -15 29 -20 86 -15 15 1 32 -7 43 -22 l19 -23 -6 23 c-6 20 -3 22 34 22 31 0 41 -4 46 -21 4 -11 9 -18 12 -15 3 3 -2 26 -11 52 -9 26 -16 49 -16 51 0 2 18 3 40 3 34 0 42 -4 50 -26 13 -34 14 -32 -22 -37 l-33 -4 36 -1 c29 -2 38 -7 42 -24 4 -12 9 -19 12 -16 4 3 -5 41 -19 85 -13 43 -30 102 -37 131 l-13 52 -318 0 c-175 0 -318 -2 -318 -5z m135 -35 c8 -16 15 -31 15 -35 0 -3 -21 -5 -47 -5 -42 0 -50 4 -65 29 -9 16 -14 32 -10 35 3 3 25 6 48 6 38 0 45 -4 59 -30z m291 -8 l13 -32 -58 0 c-52 0 -59 2 -69 25 -20 43 -16 47 44 43 52 -4 57 -6 70 -36z m204 13 c0 -7 3 -20 6 -29 4 -12 0 -16 -17 -17 -23 -2 -23 -2 -2 -6 13 -2 26 -16 32 -34 10 -29 10 -29 -29 -29 -37 0 -39 1 -55 50 -9 28 -21 50 -25 50 -5 0 -7 -7 -4 -15 5 -12 -3 -15 -38 -15 -38 0 -46 4 -56 25 -7 14 -12 29 -12 33 0 4 45 6 100 4 76 -3 100 -7 100 -17z m-340 -4 c19 -36 12 -41 -55 -41 -62 0 -65 1 -80 30 l-16 30 70 0 c59 0 72 -3 81 -19z m-120 -78 c6 -16 17 -40 25 -55 23 -40 19 -48 -25 -48 -34 0 -42 4 -55 29 l-15 30 38 4 37 4 -40 1 c-34 2 -44 7 -58 32 l-18 30 51 0 c46 0 51 -2 60 -27z m384 5 c9 -37 8 -38 -34 -38 -29 0 -42 5 -50 19 -17 34 -11 41 34 41 37 0 45 -4 50 -22z m16 -62 c0 -8 3 -21 6 -30 5 -13 -2 -16 -34 -16 -36 0 -41 3 -51 30 l-10 30 45 0 c31 0 44 -4 44 -14z" fill="#03a9f4"/>
<path d="M986 1009 c12 -24 13 -34 4 -39 -8 -5 -5 -9 9 -13 29 -7 33 2 11 31 -11 13 -20 31 -20 38 0 8 -5 14 -10 14 -6 0 -3 -14 6 -31z" fill="#03a9f4"/>
<path d="M1568 1193 l-96 -4 7 -27 7 -27 169 -5 168 -5 53 -150 c29 -82 53 -157 53 -166 1 -9 -10 -21 -24 -27 -41 -19 -89 -14 -129 13 -20 14 -39 25 -42 25 -3 0 -22 -11 -42 -25 -50 -34 -96 -33 -131 3 l-27 27 -35 -24 -34 -24 33 6 c23 5 44 0 73 -14 46 -24 108 -22 139 6 16 15 21 14 59 -6 40 -21 101 -23 156 -5 18 6 25 -10 81 -180 53 -161 59 -187 47 -200 -8 -8 -15 -14 -16 -15 -1 0 -311 -3 -689 -5 -437 -3 -696 0 -713 6 -14 5 -28 17 -31 25 -4 8 19 93 51 188 31 94 58 177 60 183 2 8 23 5 63 -8 59 -20 60 -20 106 0 41 19 49 19 73 6 43 -22 93 -17 147 15 l50 28 34 -24 c60 -40 103 -46 164 -23 29 11 64 27 78 35 21 12 23 15 8 20 -10 4 -35 -4 -61 -19 -63 -37 -121 -35 -177 5 l-44 32 -58 -33 c-65 -35 -105 -36 -150 -1 -23 19 -24 18 -53 -5 -35 -28 -91 -32 -135 -9 -34 17 -35 22 -19 76 10 32 9 40 -5 54 -9 9 -21 26 -27 37 -6 11 -13 18 -15 15 -9 -9 -206 -553 -216 -595 -12 -52 0 -88 40 -117 26 -20 45 -20 807 -23 766 -2 781 -2 813 18 55 34 66 95 32 174 -10 25 -56 144 -100 263 -186 498 -188 502 -257 504 -21 0 -63 2 -93 3 -30 1 -98 0 -152 -1z m-208 -878 c16 -19 4 -35 -25 -35 -32 0 -42 20 -20 37 24 17 30 16 45 -2z" fill="#03a9f4"/>
<path d="M440 1029 c-19 -10 -47 -19 -62 -19 -16 0 -28 -4 -28 -10 0 -16 53 -11 91 8 31 16 39 16 57 4 12 -7 26 -11 32 -7 7 5 0 14 -19 26 -18 10 -32 19 -34 18 -1 0 -18 -9 -37 -20z" fill="#03a9f4"/>
<path d="M631 1021 c-8 -5 -9 -11 -3 -15 14 -8 43 4 36 15 -7 11 -15 11 -33 0z" fill="#03a9f4"/>
<path d="M563 1003 c9 -2 25 -2 35 0 9 3 1 5 -18 5 -19 0 -27 -2 -17 -5z" fill="#03a9f4"/>
<path d="M464 929 c-3 -6 -16 -14 -28 -18 -15 -6 -6 -8 32 -8 28 1 52 2 52 3 0 1 -11 9 -24 18 -17 10 -27 12 -32 5z" fill="#03a9f4"/>
<path d="M320 920 c0 -5 10 -10 23 -10 18 0 19 2 7 10 -19 13 -30 13 -30 0z" fill="#03a9f4"/>
<path d="M605 915 c-29 -14 -29 -14 -5 -14 14 0 34 6 44 14 25 19 3 19 -39 0z" fill="#03a9f4"/>
<path d="M2005 920 c3 -5 14 -10 23 -10 15 0 15 2 2 10 -20 13 -33 13 -25 0z" fill="#03a9f4"/>
<path d="M2207 923 c-4 -3 -28 -12 -54 -19 -44 -12 -45 -13 -15 -13 18 -1 48 5 67 13 21 9 37 11 40 5 4 -5 18 -9 33 -9 26 1 26 1 -7 15 -36 16 -54 19 -64 8z" fill="#03a9f4"/>
<path d="M2365 912 c-51 -14 -55 -17 -30 -20 17 -1 57 6 90 17 46 14 53 19 30 19 -16 0 -57 -7 -90 -16z" fill="#03a9f4"/>
<path d="M240 810 c0 -12 276 -12 305 0 12 5 -42 9 -142 9 -103 1 -163 -3 -163 -9z" fill="#03a9f4"/>
<path d="M2100 810 c20 -13 330 -13 330 0 0 6 -64 10 -172 10 -116 0 -168 -4 -158 -10z" fill="#03a9f4"/>
<path d="M1087 689 c-4 -16 -11 -20 -26 -16 -12 3 -19 1 -15 -4 3 -5 12 -9 20 -9 8 0 14 -5 14 -11 0 -5 8 -9 18 -7 11 2 27 -4 38 -12 18 -14 18 -14 2 6 -21 24 -23 45 -5 64 10 12 9 12 -4 2 -11 -8 -19 -8 -26 -1 -7 7 -12 4 -16 -12z" fill="#03a9f4"/>
<path d="M1310 696 c0 -2 8 -10 18 -17 15 -13 16 -12 3 4 -13 16 -21 21 -21 13z" fill="#03a9f4"/>
<path d="M1571 683 c-1 -13 -7 -23 -13 -23 -7 0 -5 -5 5 -11 25 -15 31 -6 19 28 -9 25 -11 26 -11 6z" fill="#03a9f4"/>
<path d="M1438 668 c-4 -33 -45 -37 -57 -6 -7 16 -10 18 -10 6 -1 -9 4 -20 10 -23 7 -5 2 -17 -13 -34 l-23 -26 26 23 c14 12 28 22 32 22 4 0 6 -10 4 -22 -2 -13 -2 -17 0 -10 3 7 9 10 14 6 5 -3 6 -10 3 -16 -4 -6 2 -6 15 1 25 14 28 23 4 14 -14 -5 -16 -4 -7 8 6 8 11 29 12 47 3 36 -5 44 -10 10z" fill="#03a9f4"/>
<path d="M1190 668 c0 -11 30 -78 35 -78 3 0 -2 17 -10 37 -15 36 -25 52 -25 41z" fill="#03a9f4"/>
<path d="M1607 663 c-9 -9 -9 -41 1 -46 4 -3 7 8 7 24 0 16 0 29 -1 29 0 0 -4 -3 -7 -7z" fill="#03a9f4"/>
<path d="M1342 640 c0 -14 2 -19 5 -12 2 6 2 18 0 25 -3 6 -5 1 -5 -13z" fill="#03a9f4"/>
<path d="M1060 623 c8 -3 24 -10 35 -15 20 -9 20 -9 1 6 -11 9 -27 16 -35 15 -14 0 -14 -1 -1 -6z" fill="#03a9f4"/>
<path d="M1503 623 c9 -2 25 -2 35 0 9 3 1 5 -18 5 -19 0 -27 -2 -17 -5z" fill="#03a9f4"/>
<path d="M1860 586 c0 -2 8 -10 18 -17 15 -13 16 -12 3 4 -13 16 -21 21 -21 13z" fill="#03a9f4"/>
<path d="M1097 539 c7 -7 15 -10 18 -7 3 3 -2 9 -12 12 -14 6 -15 5 -6 -5z" fill="#03a9f4"/>
<path d="M1732 520 c0 -14 2 -19 5 -12 2 6 2 18 0 25 -3 6 -5 1 -5 -13z" fill="#03a9f4"/>
<path d="M1080 522 c8 -5 26 -13 40 -16 17 -5 20 -4 10 2 -8 5 -26 13 -40 16 -17 5 -20 4 -10 -2z" fill="#03a9f4"/>
<path d="M1140 520 c8 -5 20 -10 25 -10 6 0 3 5 -5 10 -8 5 -19 10 -25 10 -5 0 -3 -5 5 -10z" fill="#03a9f4"/>
<path d="M1430 510 c-8 -5 -10 -10 -5 -10 6 0 17 5 25 10 8 5 11 10 5 10 -5 0 -17 -5 -25 -10z" fill="#03a9f4"/>
<path d="M1188 503 c7 -3 16 -2 19 1 4 3 -2 6 -13 5 -11 0 -14 -3 -6 -6z" fill="#03a9f4"/>
<path d="M1308 494 c-27 -8 -48 -17 -48 -19 0 -3 19 -5 43 -4 34 0 38 2 22 10 -16 8 -14 8 11 5 17 -3 42 -2 54 1 22 6 23 7 4 14 -26 10 -32 10 -86 -7z m69 0 c-3 -3 -12 -4 -19 -1 -8 3 -5 6 6 6 11 1 17 -2 13 -5z" fill="#03a9f4"/>
<path d="M1188 443 c7 -3 16 -2 19 1 4 3 -2 6 -13 5 -11 0 -14 -3 -6 -6z" fill="#03a9f4"/>
<path d="M1248 433 c17 -2 47 -2 65 0 17 2 3 4 -33 4 -36 0 -50 -2 -32 -4z" fill="#03a9f4"/>
<path d="M440 290 c0 -67 59 -133 133 -149 49 -12 1421 -15 1505 -4 47 6 95 34 124 74 14 18 18 38 16 70 -3 34 -6 39 -12 24 -34 -87 -48 -107 -89 -125 -37 -18 -67 -20 -272 -20 -148 0 -225 4 -215 10 11 7 12 12 3 21 -15 15 -36 2 -29 -18 5 -13 -60 -14 -512 -11 -589 3 -570 1 -610 84 -12 24 -22 51 -22 59 0 8 -4 15 -10 15 -5 0 -10 -14 -10 -30z" fill="#03a9f4"/>
<path d="M747 193 c-13 -12 -7 -23 13 -23 11 0 20 7 20 15 0 15 -21 21 -33 8z" fill="#03a9f4"/>
<path d="M800 185 c0 -8 7 -15 15 -15 8 0 15 7 15 15 0 8 -7 15 -15 15 -8 0 -15 -7 -15 -15z" fill="#03a9f4"/>
<path d="M850 185 c0 -8 7 -15 15 -15 8 0 15 7 15 15 0 8 -7 15 -15 15 -8 0 -15 -7 -15 -15z" fill="#03a9f4"/>
<path d="M900 185 c0 -8 7 -15 15 -15 8 0 15 7 15 15 0 8 -7 15 -15 15 -8 0 -15 -7 -15 -15z" fill="#03a9f4"/>
<path d="M950 185 c0 -8 7 -15 15 -15 8 0 15 7 15 15 0 8 -7 15 -15 15 -8 0 -15 -7 -15 -15z" fill="#03a9f4"/>
<path d="M1000 185 c0 -8 7 -15 15 -15 8 0 15 7 15 15 0 8 -7 15 -15 15 -8 0 -15 -7 -15 -15z" fill="#03a9f4"/>
<path d="M1220 185 c0 -12 19 -15 110 -15 91 0 110 3 110 15 0 12 -19 15 -110 15 -91 0 -110 -3 -110 -15z" fill="#03a9f4"/>
<path d="M1657 193 c-13 -12 -7 -23 13 -23 11 0 20 7 20 15 0 15 -21 21 -33 8z" fill="#03a9f4"/>
<path d="M1707 193 c-13 -12 -7 -23 13 -23 11 0 20 7 20 15 0 15 -21 21 -33 8z" fill="#03a9f4"/>
<path d="M1757 194 c-9 -10 2 -24 19 -24 8 0 14 7 14 15 0 15 -21 21 -33 9z" fill="#03a9f4"/>
<path d="M1807 194 c-9 -10 2 -24 19 -24 8 0 14 7 14 15 0 15 -21 21 -33 9z" fill="#03a9f4"/>
<path d="M1857 194 c-13 -13 -7 -24 14 -24 11 0 19 5 17 12 -5 14 -22 21 -31 12z" fill="#03a9f4"/>
<path d="M1907 194 c-9 -10 2 -24 19 -24 8 0 14 7 14 15 0 15 -21 21 -33 9z" fill="#03a9f4"/>
</g>
</svg>